<?xml version="1.0" standalone="no"?>
<!DOCTYPE svg PUBLIC "-//W3C//DTD SVG 20010904//EN"
 "http://www.w3.org/TR/2001/REC-SVG-20010904/DTD/svg10.dtd">
<svg version="1.0" xmlns="http://www.w3.org/2000/svg"
 width="260.000000pt" height="260.000000pt" viewBox="0 0 260.000000 260.000000"
 preserveAspectRatio="xMidYMid meet">
<metadata>
Created by potrace 1.11, written by Peter Selinger 2001-2013
</metadata>
<g transform="translate(0.000000,260.000000) scale(0.100000,-0.100000)"
fill="#000000" stroke="none">
<path d="M0 1300 l0 -1300 1300 0 1300 0 0 1300 0 1300 -1300 0 -1300 0 0
-1300z m1250 680 l0 -150 -335 0 -335 0 0 -205 0 -205 280 0 280 0 0 -150 0
-150 -280 0 -280 0 0 -320 0 -320 -195 0 -195 0 0 825 0 825 530 0 530 0 0
-150z m809 -325 c194 -46 332 -174 403 -375 29 -81 36 -273 14 -374 -49 -220
-206 -381 -419 -431 -80 -19 -244 -19 -326 0 -109 26 -188 71 -269 151 -108
108 -156 222 -168 401 -20 306 145 551 418 623 91 24 256 26 347 5z"/>
<path d="M1875 1405 c-5 -2 -27 -6 -48 -10 -54 -9 -111 -64 -139 -133 -30 -78
-33 -298 -4 -380 18 -54 63 -114 97 -133 36 -19 113 -28 163 -18 67 12 113 50
145 118 25 53 26 64 26 216 0 152 -1 163 -26 216 -33 69 -79 106 -149 119 -29
5 -53 10 -54 9 0 0 -5 -2 -11 -4z"/>
</g>
</svg>
